<svg xmlns="http://www.w3.org/2000/svg" viewBox="0 0 255 72" role="img" aria-labelledby="title description">
  <title id="title">Hotmat.se</title>
  <desc id="description">Hotmats kocklogotyp</desc>
  <g fill="none" stroke="#F45550" stroke-linecap="round" stroke-linejoin="round">
    <path stroke-width="3" d="M16 29c-7-1-10-6-9-11 1-6 7-9 13-7 3-6 13-7 17-1 7-3 15 2 15 9 0 6-5 10-11 10H16Z"/>
    <path stroke-width="3" d="M18 29v9h23v-9M21 38v5h17v-5"/>
    <circle cx="25" cy="49" r="1.8" fill="#F45550" stroke="none"/>
    <circle cx="35" cy="49" r="1.8" fill="#F45550" stroke="none"/>
    <path stroke-width="2.6" d="M20 53c3 0 5 1 7 4 2-3 4-4 7-4-1 5-4 7-7 4-3 3-6 1-7-4ZM34 53c3 0 5 1 7 4"/>
  </g>
  <text x="61" y="42" fill="#F45550" font-family="Georgia, 'Times New Roman', serif" font-size="31" font-style="italic" font-weight="700">Hotmat.se</text>
  <text x="63" y="58" fill="#475467" font-family="Arial, sans-serif" font-size="8.5" font-style="italic">Dina favoritrestauranger på nätet</text>
</svg>
